<mxfile host="Electron" modified="2024-03-04T12:44:14.837Z" agent="Mozilla/5.0 (Windows NT 10.0; Win64; x64) AppleWebKit/537.36 (KHTML, like Gecko) draw.io/23.1.5 Chrome/120.0.6099.109 Electron/28.1.0 Safari/537.36" etag="HjqcsqOo8AFv1ua7YiYi" version="23.1.5" type="device">
  <diagram id="KfsiAd6VWCwOmLBcd4b7" name="Page-1">
    <mxGraphModel dx="1834" dy="1236" grid="1" gridSize="10" guides="1" tooltips="1" connect="1" arrows="1" fold="1" page="0" pageScale="1" pageWidth="850" pageHeight="1100" background="#ffffff" math="0" shadow="0">
      <root>
        <mxCell id="0" />
        <mxCell id="1" parent="0" />
        <mxCell id="y7BpoCNVdQsxZ7AoowJW-1" value="" style="endArrow=classic;html=1;strokeColor=#000000;verticalAlign=top;fontColor=#000000;" parent="1" edge="1">
          <mxGeometry width="50" height="50" relative="1" as="geometry">
            <mxPoint x="287" y="360" as="sourcePoint" />
            <mxPoint x="847" y="360" as="targetPoint" />
          </mxGeometry>
        </mxCell>
        <mxCell id="y7BpoCNVdQsxZ7AoowJW-2" value="" style="endArrow=classic;html=1;strokeColor=#000000;verticalAlign=top;fontColor=#000000;" parent="1" edge="1">
          <mxGeometry width="50" height="50" relative="1" as="geometry">
            <mxPoint x="287" y="370" as="sourcePoint" />
            <mxPoint x="847" y="370" as="targetPoint" />
          </mxGeometry>
        </mxCell>
        <mxCell id="y7BpoCNVdQsxZ7AoowJW-3" value="" style="endArrow=classic;html=1;strokeColor=#000000;verticalAlign=top;fontColor=#000000;" parent="1" edge="1">
          <mxGeometry width="50" height="50" relative="1" as="geometry">
            <mxPoint x="287" y="350" as="sourcePoint" />
            <mxPoint x="847" y="350" as="targetPoint" />
          </mxGeometry>
        </mxCell>
        <mxCell id="y7BpoCNVdQsxZ7AoowJW-4" value="Automation Composition Management Design (ACM-D)" style="rounded=0;whiteSpace=wrap;html=1;fillColor=#dae8fc;strokeColor=#000000;verticalAlign=top;fontColor=#000000;" parent="1" vertex="1">
          <mxGeometry x="30" y="-20" width="307" height="170" as="geometry" />
        </mxCell>
        <mxCell id="y7BpoCNVdQsxZ7AoowJW-5" value="&lt;div&gt;Design Time Catalogue&lt;/div&gt;" style="shape=cylinder;whiteSpace=wrap;html=1;boundedLbl=1;backgroundOutline=1;fillColor=#f8cecc;strokeColor=#000000;fontColor=#000000;" parent="1" vertex="1">
          <mxGeometry x="147" y="50" width="70" height="80" as="geometry" />
        </mxCell>
        <mxCell id="y7BpoCNVdQsxZ7AoowJW-6" value="Automation Composition Management Runtime (ACM-R)" style="rounded=0;whiteSpace=wrap;html=1;fillColor=#dae8fc;strokeColor=#000000;verticalAlign=top;fontColor=#000000;" parent="1" vertex="1">
          <mxGeometry x="507" y="10" width="310" height="160" as="geometry" />
        </mxCell>
        <mxCell id="y7BpoCNVdQsxZ7AoowJW-7" value="&lt;div&gt;Run Time Inventory&lt;/div&gt;" style="shape=cylinder;whiteSpace=wrap;html=1;boundedLbl=1;backgroundOutline=1;fillColor=#f8cecc;strokeColor=#000000;fontColor=#000000;" parent="1" vertex="1">
          <mxGeometry x="627" y="40" width="70" height="80" as="geometry" />
        </mxCell>
        <mxCell id="y7BpoCNVdQsxZ7AoowJW-8" value="Automation Composition Element Definitions" style="rounded=0;whiteSpace=wrap;html=1;fillColor=#fff2cc;strokeColor=#000000;fontColor=#000000;" parent="1" vertex="1">
          <mxGeometry x="-130" y="-50.5" width="120" height="60" as="geometry" />
        </mxCell>
        <mxCell id="y7BpoCNVdQsxZ7AoowJW-9" value="" style="endArrow=classic;html=1;exitX=1;exitY=0.5;exitDx=0;exitDy=0;strokeColor=#000000;fontColor=#000000;entryX=0;entryY=0.25;entryDx=0;entryDy=0;" parent="1" source="y7BpoCNVdQsxZ7AoowJW-8" target="5zvoJqUGBDOMEw7KMt0H-1" edge="1">
          <mxGeometry width="50" height="50" relative="1" as="geometry">
            <mxPoint x="60" y="105" as="sourcePoint" />
            <mxPoint x="40" y="60" as="targetPoint" />
          </mxGeometry>
        </mxCell>
        <mxCell id="y7BpoCNVdQsxZ7AoowJW-10" value="Metadata" style="shape=note;whiteSpace=wrap;html=1;backgroundOutline=1;darkOpacity=0.05;fillColor=#d5e8d4;strokeColor=#000000;size=13;fontColor=#000000;" parent="1" vertex="1">
          <mxGeometry x="-120" y="39.5" width="80" height="60" as="geometry" />
        </mxCell>
        <mxCell id="y7BpoCNVdQsxZ7AoowJW-11" value="" style="endArrow=none;dashed=1;html=1;exitX=0;exitY=0;exitDx=80;exitDy=36.5;exitPerimeter=0;strokeColor=#000000;fontColor=#000000;" parent="1" source="y7BpoCNVdQsxZ7AoowJW-10" edge="1">
          <mxGeometry width="50" height="50" relative="1" as="geometry">
            <mxPoint x="210" y="309.5" as="sourcePoint" />
            <mxPoint x="10" y="20" as="targetPoint" />
          </mxGeometry>
        </mxCell>
        <mxCell id="y7BpoCNVdQsxZ7AoowJW-12" value="&lt;div&gt;Automation Composition&lt;/div&gt;&lt;div&gt;Assembling&lt;br&gt;&lt;/div&gt;" style="rounded=0;whiteSpace=wrap;html=1;fillColor=#fff2cc;strokeColor=#000000;fontColor=#000000;" parent="1" vertex="1">
          <mxGeometry x="247" y="35" width="80" height="60" as="geometry" />
        </mxCell>
        <mxCell id="y7BpoCNVdQsxZ7AoowJW-13" value="" style="endArrow=classic;startArrow=classic;html=1;entryX=0;entryY=0.5;entryDx=0;entryDy=0;exitX=1;exitY=0.5;exitDx=0;exitDy=0;strokeColor=#000000;fontColor=#000000;" parent="1" source="y7BpoCNVdQsxZ7AoowJW-5" target="y7BpoCNVdQsxZ7AoowJW-12" edge="1">
          <mxGeometry width="50" height="50" relative="1" as="geometry">
            <mxPoint x="187" y="315" as="sourcePoint" />
            <mxPoint x="237" y="265" as="targetPoint" />
          </mxGeometry>
        </mxCell>
        <mxCell id="y7BpoCNVdQsxZ7AoowJW-14" value="&lt;font style=&quot;font-size: 10px&quot;&gt;AC Definition (TOSCA)&lt;/font&gt;" style="shape=note;whiteSpace=wrap;html=1;backgroundOutline=1;darkOpacity=0.05;fillColor=#d5e8d4;strokeColor=#000000;size=9;verticalAlign=top;fontColor=#000000;" parent="1" vertex="1">
          <mxGeometry x="357" y="120" width="70" height="40" as="geometry" />
        </mxCell>
        <mxCell id="y7BpoCNVdQsxZ7AoowJW-15" value="&lt;div&gt;AC Execution Control&lt;br&gt;&lt;/div&gt;" style="rounded=0;whiteSpace=wrap;html=1;fillColor=#fff2cc;strokeColor=#000000;verticalAlign=top;fontColor=#000000;" parent="1" vertex="1">
          <mxGeometry x="517" y="35" width="80" height="75" as="geometry" />
        </mxCell>
        <mxCell id="y7BpoCNVdQsxZ7AoowJW-16" value="" style="endArrow=none;dashed=1;html=1;exitX=0.6;exitY=-0.017;exitDx=0;exitDy=0;exitPerimeter=0;strokeColor=#000000;fontColor=#000000;" parent="1" source="y7BpoCNVdQsxZ7AoowJW-14" edge="1">
          <mxGeometry width="50" height="50" relative="1" as="geometry">
            <mxPoint x="350.5" y="210" as="sourcePoint" />
            <mxPoint x="417" y="70" as="targetPoint" />
          </mxGeometry>
        </mxCell>
        <mxCell id="y7BpoCNVdQsxZ7AoowJW-17" value="" style="endArrow=classic;startArrow=classic;html=1;entryX=1;entryY=0.5;entryDx=0;entryDy=0;exitX=0;exitY=0.5;exitDx=0;exitDy=0;strokeColor=#000000;fontColor=#000000;" parent="1" source="y7BpoCNVdQsxZ7AoowJW-7" target="y7BpoCNVdQsxZ7AoowJW-15" edge="1">
          <mxGeometry width="50" height="50" relative="1" as="geometry">
            <mxPoint x="267" y="330" as="sourcePoint" />
            <mxPoint x="317" y="280" as="targetPoint" />
          </mxGeometry>
        </mxCell>
        <mxCell id="y7BpoCNVdQsxZ7AoowJW-18" value="Kafka" style="rounded=0;whiteSpace=wrap;html=1;fillColor=#dae8fc;strokeColor=#000000;fontColor=#000000;" parent="1" vertex="1">
          <mxGeometry x="317" y="242" width="500" height="20" as="geometry" />
        </mxCell>
        <mxCell id="y7BpoCNVdQsxZ7AoowJW-19" value="&lt;div&gt;AC Execution Monitoring&lt;br&gt;&lt;/div&gt;" style="rounded=0;whiteSpace=wrap;html=1;fillColor=#fff2cc;strokeColor=#000000;fontColor=#000000;" parent="1" vertex="1">
          <mxGeometry x="727" y="40" width="80" height="60" as="geometry" />
        </mxCell>
        <mxCell id="y7BpoCNVdQsxZ7AoowJW-20" value="" style="endArrow=classic;startArrow=classic;html=1;entryX=1;entryY=0.5;entryDx=0;entryDy=0;exitX=0;exitY=0.5;exitDx=0;exitDy=0;strokeColor=#000000;fontColor=#000000;" parent="1" source="y7BpoCNVdQsxZ7AoowJW-19" target="y7BpoCNVdQsxZ7AoowJW-7" edge="1">
          <mxGeometry width="50" height="50" relative="1" as="geometry">
            <mxPoint x="637" y="90" as="sourcePoint" />
            <mxPoint x="607" y="75" as="targetPoint" />
          </mxGeometry>
        </mxCell>
        <mxCell id="y7BpoCNVdQsxZ7AoowJW-21" value="AC Participant" style="rounded=0;whiteSpace=wrap;html=1;fillColor=#fff2cc;strokeColor=#000000;verticalAlign=top;fontColor=#000000;" parent="1" vertex="1">
          <mxGeometry x="317" y="302" width="70" height="98" as="geometry" />
        </mxCell>
        <mxCell id="y7BpoCNVdQsxZ7AoowJW-22" value="AC Participant" style="rounded=0;whiteSpace=wrap;html=1;fillColor=#fff2cc;strokeColor=#000000;verticalAlign=top;fontColor=#000000;" parent="1" vertex="1">
          <mxGeometry x="403" y="302" width="70" height="98" as="geometry" />
        </mxCell>
        <mxCell id="y7BpoCNVdQsxZ7AoowJW-23" value="AC Participant" style="rounded=0;whiteSpace=wrap;html=1;fillColor=#fff2cc;strokeColor=#000000;verticalAlign=top;fontColor=#000000;" parent="1" vertex="1">
          <mxGeometry x="489" y="302" width="70" height="98" as="geometry" />
        </mxCell>
        <mxCell id="y7BpoCNVdQsxZ7AoowJW-24" value="AC Participant" style="rounded=0;whiteSpace=wrap;html=1;fillColor=#fff2cc;strokeColor=#000000;verticalAlign=top;fontColor=#000000;" parent="1" vertex="1">
          <mxGeometry x="575" y="302" width="70" height="98" as="geometry" />
        </mxCell>
        <mxCell id="y7BpoCNVdQsxZ7AoowJW-25" value="AC Participant" style="rounded=0;whiteSpace=wrap;html=1;fillColor=#fff2cc;strokeColor=#000000;verticalAlign=top;fontColor=#000000;" parent="1" vertex="1">
          <mxGeometry x="747" y="302" width="70" height="98" as="geometry" />
        </mxCell>
        <mxCell id="y7BpoCNVdQsxZ7AoowJW-26" value="AC Participant" style="rounded=0;whiteSpace=wrap;html=1;fillColor=#fff2cc;strokeColor=#000000;verticalAlign=top;fontColor=#000000;" parent="1" vertex="1">
          <mxGeometry x="661" y="302" width="70" height="98" as="geometry" />
        </mxCell>
        <mxCell id="y7BpoCNVdQsxZ7AoowJW-27" value="" style="endArrow=classic;html=1;exitX=0.898;exitY=0.1;exitDx=0;exitDy=0;exitPerimeter=0;entryX=0.5;entryY=1;entryDx=0;entryDy=0;strokeColor=#000000;fontColor=#000000;" parent="1" source="y7BpoCNVdQsxZ7AoowJW-18" target="y7BpoCNVdQsxZ7AoowJW-19" edge="1">
          <mxGeometry width="50" height="50" relative="1" as="geometry">
            <mxPoint x="567" y="105" as="sourcePoint" />
            <mxPoint x="569" y="227" as="targetPoint" />
          </mxGeometry>
        </mxCell>
        <mxCell id="y7BpoCNVdQsxZ7AoowJW-28" value="&lt;font style=&quot;font-size: 10px&quot;&gt;Control&lt;br&gt;Messages&lt;/font&gt;" style="shape=note;whiteSpace=wrap;html=1;backgroundOutline=1;darkOpacity=0.05;fillColor=#d5e8d4;strokeColor=#000000;size=13;verticalAlign=top;horizontal=1;spacing=-1;fontColor=#000000;" parent="1" vertex="1">
          <mxGeometry x="437" y="170" width="62" height="40" as="geometry" />
        </mxCell>
        <mxCell id="y7BpoCNVdQsxZ7AoowJW-29" value="&lt;font style=&quot;font-size: 10px&quot;&gt;Monitoring&lt;br&gt;Messages&lt;/font&gt;" style="shape=note;whiteSpace=wrap;html=1;backgroundOutline=1;darkOpacity=0.05;fillColor=#d5e8d4;strokeColor=#000000;size=13;verticalAlign=top;horizontal=1;spacing=-1;fontColor=#000000;" parent="1" vertex="1">
          <mxGeometry x="837" y="180" width="62" height="40" as="geometry" />
        </mxCell>
        <mxCell id="y7BpoCNVdQsxZ7AoowJW-30" value="" style="endArrow=none;dashed=1;html=1;exitX=1.027;exitY=0.567;exitDx=0;exitDy=0;exitPerimeter=0;strokeColor=#000000;fontColor=#000000;" parent="1" source="y7BpoCNVdQsxZ7AoowJW-28" edge="1">
          <mxGeometry width="50" height="50" relative="1" as="geometry">
            <mxPoint x="409" y="129.32000000000005" as="sourcePoint" />
            <mxPoint x="537" y="150" as="targetPoint" />
          </mxGeometry>
        </mxCell>
        <mxCell id="y7BpoCNVdQsxZ7AoowJW-31" value="" style="endArrow=classic;html=1;exitX=0.038;exitY=1.133;exitDx=0;exitDy=0;exitPerimeter=0;entryX=0.25;entryY=0;entryDx=0;entryDy=0;strokeColor=#000000;fontColor=#000000;" parent="1" source="y7BpoCNVdQsxZ7AoowJW-18" target="y7BpoCNVdQsxZ7AoowJW-21" edge="1">
          <mxGeometry width="50" height="50" relative="1" as="geometry">
            <mxPoint x="567" y="127" as="sourcePoint" />
            <mxPoint x="569" y="249" as="targetPoint" />
          </mxGeometry>
        </mxCell>
        <mxCell id="y7BpoCNVdQsxZ7AoowJW-32" value="" style="endArrow=classic;html=1;exitX=0.038;exitY=1.133;exitDx=0;exitDy=0;exitPerimeter=0;entryX=0.25;entryY=0;entryDx=0;entryDy=0;strokeColor=#000000;fontColor=#000000;" parent="1" edge="1">
          <mxGeometry width="50" height="50" relative="1" as="geometry">
            <mxPoint x="418.5" y="262" as="sourcePoint" />
            <mxPoint x="417" y="299.34000000000015" as="targetPoint" />
          </mxGeometry>
        </mxCell>
        <mxCell id="y7BpoCNVdQsxZ7AoowJW-33" value="" style="endArrow=classic;html=1;exitX=0.038;exitY=1.133;exitDx=0;exitDy=0;exitPerimeter=0;entryX=0.25;entryY=0;entryDx=0;entryDy=0;strokeColor=#000000;fontColor=#000000;" parent="1" edge="1">
          <mxGeometry width="50" height="50" relative="1" as="geometry">
            <mxPoint x="508.5" y="264.65999999999985" as="sourcePoint" />
            <mxPoint x="507" y="302" as="targetPoint" />
          </mxGeometry>
        </mxCell>
        <mxCell id="y7BpoCNVdQsxZ7AoowJW-34" value="" style="endArrow=classic;html=1;exitX=0.038;exitY=1.133;exitDx=0;exitDy=0;exitPerimeter=0;entryX=0.25;entryY=0;entryDx=0;entryDy=0;strokeColor=#000000;fontColor=#000000;" parent="1" edge="1">
          <mxGeometry width="50" height="50" relative="1" as="geometry">
            <mxPoint x="588.5" y="264.65999999999985" as="sourcePoint" />
            <mxPoint x="587" y="301.99999999999955" as="targetPoint" />
          </mxGeometry>
        </mxCell>
        <mxCell id="y7BpoCNVdQsxZ7AoowJW-35" value="" style="endArrow=classic;html=1;exitX=0.038;exitY=1.133;exitDx=0;exitDy=0;exitPerimeter=0;entryX=0.25;entryY=0;entryDx=0;entryDy=0;strokeColor=#000000;fontColor=#000000;" parent="1" edge="1">
          <mxGeometry width="50" height="50" relative="1" as="geometry">
            <mxPoint x="678.5" y="264.65999999999985" as="sourcePoint" />
            <mxPoint x="677" y="301.99999999999955" as="targetPoint" />
          </mxGeometry>
        </mxCell>
        <mxCell id="y7BpoCNVdQsxZ7AoowJW-36" value="" style="endArrow=classic;html=1;exitX=0.038;exitY=1.133;exitDx=0;exitDy=0;exitPerimeter=0;entryX=0.25;entryY=0;entryDx=0;entryDy=0;strokeColor=#000000;fontColor=#000000;" parent="1" edge="1">
          <mxGeometry width="50" height="50" relative="1" as="geometry">
            <mxPoint x="758.5" y="264.65999999999985" as="sourcePoint" />
            <mxPoint x="757" y="301.99999999999955" as="targetPoint" />
          </mxGeometry>
        </mxCell>
        <mxCell id="y7BpoCNVdQsxZ7AoowJW-37" value="" style="endArrow=classic;html=1;exitX=0.038;exitY=1.133;exitDx=0;exitDy=0;exitPerimeter=0;entryX=0.25;entryY=0;entryDx=0;entryDy=0;strokeColor=#000000;fontColor=#000000;" parent="1" edge="1">
          <mxGeometry width="50" height="50" relative="1" as="geometry">
            <mxPoint x="797" y="299.3399999999997" as="sourcePoint" />
            <mxPoint x="798.5" y="262" as="targetPoint" />
          </mxGeometry>
        </mxCell>
        <mxCell id="y7BpoCNVdQsxZ7AoowJW-38" value="" style="endArrow=classic;html=1;exitX=0.038;exitY=1.133;exitDx=0;exitDy=0;exitPerimeter=0;entryX=0.25;entryY=0;entryDx=0;entryDy=0;strokeColor=#000000;fontColor=#000000;" parent="1" edge="1">
          <mxGeometry width="50" height="50" relative="1" as="geometry">
            <mxPoint x="717" y="302" as="sourcePoint" />
            <mxPoint x="718.5" y="264.65999999999985" as="targetPoint" />
          </mxGeometry>
        </mxCell>
        <mxCell id="y7BpoCNVdQsxZ7AoowJW-39" value="" style="endArrow=classic;html=1;exitX=0.038;exitY=1.133;exitDx=0;exitDy=0;exitPerimeter=0;entryX=0.25;entryY=0;entryDx=0;entryDy=0;strokeColor=#000000;fontColor=#000000;" parent="1" edge="1">
          <mxGeometry width="50" height="50" relative="1" as="geometry">
            <mxPoint x="627" y="301.99999999999955" as="sourcePoint" />
            <mxPoint x="628.5" y="264.65999999999985" as="targetPoint" />
          </mxGeometry>
        </mxCell>
        <mxCell id="y7BpoCNVdQsxZ7AoowJW-40" value="" style="endArrow=classic;html=1;exitX=0.038;exitY=1.133;exitDx=0;exitDy=0;exitPerimeter=0;entryX=0.25;entryY=0;entryDx=0;entryDy=0;strokeColor=#000000;fontColor=#000000;" parent="1" edge="1">
          <mxGeometry width="50" height="50" relative="1" as="geometry">
            <mxPoint x="547" y="299.3399999999997" as="sourcePoint" />
            <mxPoint x="548.5" y="262" as="targetPoint" />
          </mxGeometry>
        </mxCell>
        <mxCell id="y7BpoCNVdQsxZ7AoowJW-41" value="" style="endArrow=classic;html=1;exitX=0.038;exitY=1.133;exitDx=0;exitDy=0;exitPerimeter=0;entryX=0.25;entryY=0;entryDx=0;entryDy=0;strokeColor=#000000;fontColor=#000000;" parent="1" edge="1">
          <mxGeometry width="50" height="50" relative="1" as="geometry">
            <mxPoint x="457" y="302" as="sourcePoint" />
            <mxPoint x="458.5" y="264.65999999999985" as="targetPoint" />
          </mxGeometry>
        </mxCell>
        <mxCell id="y7BpoCNVdQsxZ7AoowJW-42" value="" style="endArrow=classic;html=1;exitX=0.038;exitY=1.133;exitDx=0;exitDy=0;exitPerimeter=0;entryX=0.25;entryY=0;entryDx=0;entryDy=0;strokeColor=#000000;fontColor=#000000;" parent="1" edge="1">
          <mxGeometry width="50" height="50" relative="1" as="geometry">
            <mxPoint x="367" y="301.99999999999955" as="sourcePoint" />
            <mxPoint x="368.5" y="264.65999999999985" as="targetPoint" />
          </mxGeometry>
        </mxCell>
        <mxCell id="y7BpoCNVdQsxZ7AoowJW-43" value="" style="endArrow=none;dashed=1;html=1;exitX=0.645;exitY=1.05;exitDx=0;exitDy=0;exitPerimeter=0;strokeColor=#000000;fontColor=#000000;" parent="1" source="y7BpoCNVdQsxZ7AoowJW-28" edge="1">
          <mxGeometry width="50" height="50" relative="1" as="geometry">
            <mxPoint x="488.64599999999996" y="232.68000000000006" as="sourcePoint" />
            <mxPoint x="507" y="282" as="targetPoint" />
          </mxGeometry>
        </mxCell>
        <mxCell id="y7BpoCNVdQsxZ7AoowJW-44" value="" style="endArrow=none;dashed=1;html=1;exitX=-0.059;exitY=0.35;exitDx=0;exitDy=0;exitPerimeter=0;strokeColor=#000000;fontColor=#000000;" parent="1" source="y7BpoCNVdQsxZ7AoowJW-29" edge="1">
          <mxGeometry width="50" height="50" relative="1" as="geometry">
            <mxPoint x="510.674" y="202.67999999999995" as="sourcePoint" />
            <mxPoint x="767" y="160" as="targetPoint" />
          </mxGeometry>
        </mxCell>
        <mxCell id="y7BpoCNVdQsxZ7AoowJW-45" value="" style="endArrow=none;dashed=1;html=1;exitX=0.5;exitY=1;exitDx=0;exitDy=0;exitPerimeter=0;strokeColor=#000000;fontColor=#000000;" parent="1" source="y7BpoCNVdQsxZ7AoowJW-29" edge="1">
          <mxGeometry width="50" height="50" relative="1" as="geometry">
            <mxPoint x="858" y="232" as="sourcePoint" />
            <mxPoint x="797" y="282" as="targetPoint" />
          </mxGeometry>
        </mxCell>
        <mxCell id="y7BpoCNVdQsxZ7AoowJW-46" value="&lt;div&gt;Automation&lt;br&gt;Composition&lt;br&gt;&lt;/div&gt;&lt;div&gt;Execution&lt;br&gt;&lt;/div&gt;" style="text;html=1;strokeColor=none;fillColor=none;align=center;verticalAlign=middle;whiteSpace=wrap;rounded=0;fontColor=#000000;" parent="1" vertex="1">
          <mxGeometry x="227" y="302" width="40" height="30" as="geometry" />
        </mxCell>
        <mxCell id="y7BpoCNVdQsxZ7AoowJW-47" value="" style="endArrow=none;dashed=1;html=1;strokeColor=#000000;fontColor=#000000;" parent="1" edge="1">
          <mxGeometry width="50" height="50" relative="1" as="geometry">
            <mxPoint x="277" y="360" as="sourcePoint" />
            <mxPoint x="237" y="340" as="targetPoint" />
          </mxGeometry>
        </mxCell>
        <mxCell id="y7BpoCNVdQsxZ7AoowJW-48" value="Other Systems&lt;br&gt;&lt;div&gt;(DCAE-MOD)&lt;/div&gt;&lt;div&gt;(Others)&lt;br&gt;&lt;/div&gt;" style="rounded=0;whiteSpace=wrap;html=1;fillColor=#fff2cc;strokeColor=#000000;fontColor=#000000;" parent="1" vertex="1">
          <mxGeometry x="-130" y="124.5" width="120" height="60" as="geometry" />
        </mxCell>
        <mxCell id="y7BpoCNVdQsxZ7AoowJW-49" value="" style="endArrow=classic;html=1;exitX=1;exitY=0.5;exitDx=0;exitDy=0;entryX=0;entryY=0.633;entryDx=0;entryDy=0;entryPerimeter=0;strokeColor=#000000;fontColor=#000000;" parent="1" source="y7BpoCNVdQsxZ7AoowJW-48" target="5zvoJqUGBDOMEw7KMt0H-1" edge="1">
          <mxGeometry width="50" height="50" relative="1" as="geometry">
            <mxPoint x="60" y="10" as="sourcePoint" />
            <mxPoint x="40" y="100" as="targetPoint" />
          </mxGeometry>
        </mxCell>
        <mxCell id="y7BpoCNVdQsxZ7AoowJW-50" value="" style="endArrow=none;dashed=1;html=1;strokeColor=#000000;fontColor=#000000;" parent="1" edge="1">
          <mxGeometry width="50" height="50" relative="1" as="geometry">
            <mxPoint x="-40" y="79.5" as="sourcePoint" />
            <mxPoint x="10" y="120" as="targetPoint" />
          </mxGeometry>
        </mxCell>
        <mxCell id="y7BpoCNVdQsxZ7AoowJW-53" value="" style="endArrow=classic;html=1;exitX=1;exitY=0.5;exitDx=0;exitDy=0;entryX=0;entryY=0.5;entryDx=0;entryDy=0;strokeColor=#000000;fontColor=#000000;" parent="1" source="y7BpoCNVdQsxZ7AoowJW-12" target="y7BpoCNVdQsxZ7AoowJW-15" edge="1">
          <mxGeometry width="50" height="50" relative="1" as="geometry">
            <mxPoint x="327" y="65" as="sourcePoint" />
            <mxPoint x="517" y="65" as="targetPoint" />
          </mxGeometry>
        </mxCell>
        <mxCell id="y7BpoCNVdQsxZ7AoowJW-54" value="" style="ellipse;whiteSpace=wrap;html=1;fillColor=#e51400;strokeColor=#000000;fontColor=#000000;direction=south;" parent="1" vertex="1">
          <mxGeometry x="437" y="55" width="17.5" height="20" as="geometry" />
        </mxCell>
        <mxCell id="y7BpoCNVdQsxZ7AoowJW-55" value="" style="endArrow=classic;html=1;exitX=0.25;exitY=1;exitDx=0;exitDy=0;strokeColor=#000000;fontColor=#000000;" parent="1" source="y7BpoCNVdQsxZ7AoowJW-15" edge="1">
          <mxGeometry width="50" height="50" relative="1" as="geometry">
            <mxPoint x="557" y="95" as="sourcePoint" />
            <mxPoint x="547" y="240" as="targetPoint" />
            <Array as="points">
              <mxPoint x="537" y="140" />
            </Array>
          </mxGeometry>
        </mxCell>
        <mxCell id="y7BpoCNVdQsxZ7AoowJW-56" value="" style="ellipse;whiteSpace=wrap;html=1;fillColor=#e51400;strokeColor=#000000;fontColor=#000000;direction=south;" parent="1" vertex="1">
          <mxGeometry x="537" y="204" width="17.5" height="20" as="geometry" />
        </mxCell>
        <mxCell id="y7BpoCNVdQsxZ7AoowJW-57" value="" style="ellipse;whiteSpace=wrap;html=1;fillColor=#e51400;strokeColor=#000000;fontColor=#000000;direction=south;" parent="1" vertex="1">
          <mxGeometry x="758.25" y="180" width="17.5" height="20" as="geometry" />
        </mxCell>
        <mxCell id="y7BpoCNVdQsxZ7AoowJW-58" value="&lt;font size=&quot;1&quot;&gt;&lt;b style=&quot;font-size: 15px&quot;&gt;Commissioning&lt;/b&gt;&lt;/font&gt;" style="text;html=1;strokeColor=none;fillColor=none;align=center;verticalAlign=middle;whiteSpace=wrap;rounded=0;fontColor=#000000;" parent="1" vertex="1">
          <mxGeometry x="357" y="-37.5" width="136" height="20" as="geometry" />
        </mxCell>
        <mxCell id="y7BpoCNVdQsxZ7AoowJW-59" value="" style="endArrow=classic;html=1;exitX=0.5;exitY=1;exitDx=0;exitDy=0;entryX=0;entryY=0.5;entryDx=0;entryDy=0;strokeWidth=2;dashed=1;dashPattern=1 1;strokeColor=#000000;fontColor=#000000;" parent="1" source="y7BpoCNVdQsxZ7AoowJW-58" target="y7BpoCNVdQsxZ7AoowJW-54" edge="1">
          <mxGeometry width="50" height="50" relative="1" as="geometry">
            <mxPoint x="367" y="330" as="sourcePoint" />
            <mxPoint x="417" y="280" as="targetPoint" />
          </mxGeometry>
        </mxCell>
        <mxCell id="y7BpoCNVdQsxZ7AoowJW-60" value="&lt;font size=&quot;1&quot;&gt;&lt;b style=&quot;font-size: 15px&quot;&gt;Instantiation&lt;/b&gt;&lt;/font&gt;" style="text;html=1;strokeColor=none;fillColor=none;align=center;verticalAlign=middle;whiteSpace=wrap;rounded=0;fontColor=#000000;" parent="1" vertex="1">
          <mxGeometry x="591" y="206" width="136" height="20" as="geometry" />
        </mxCell>
        <mxCell id="y7BpoCNVdQsxZ7AoowJW-61" value="" style="endArrow=classic;html=1;entryX=0.5;entryY=0;entryDx=0;entryDy=0;strokeWidth=2;dashed=1;dashPattern=1 1;strokeColor=#000000;fontColor=#000000;" parent="1" edge="1">
          <mxGeometry width="50" height="50" relative="1" as="geometry">
            <mxPoint x="611" y="215.5" as="sourcePoint" />
            <mxPoint x="554.5" y="215.5" as="targetPoint" />
          </mxGeometry>
        </mxCell>
        <mxCell id="y7BpoCNVdQsxZ7AoowJW-62" value="&lt;font size=&quot;1&quot;&gt;&lt;b style=&quot;font-size: 15px&quot;&gt;Monitoring&lt;/b&gt;&lt;/font&gt;" style="text;html=1;strokeColor=none;fillColor=none;align=center;verticalAlign=middle;whiteSpace=wrap;rounded=0;fontColor=#000000;" parent="1" vertex="1">
          <mxGeometry x="837" y="262" width="136" height="20" as="geometry" />
        </mxCell>
        <mxCell id="y7BpoCNVdQsxZ7AoowJW-63" value="" style="endArrow=classic;html=1;entryX=1;entryY=0;entryDx=0;entryDy=0;strokeWidth=2;dashed=1;exitX=0.25;exitY=0;exitDx=0;exitDy=0;dashPattern=1 1;strokeColor=#000000;fontColor=#000000;" parent="1" source="y7BpoCNVdQsxZ7AoowJW-62" target="y7BpoCNVdQsxZ7AoowJW-57" edge="1">
          <mxGeometry width="50" height="50" relative="1" as="geometry">
            <mxPoint x="637" y="220" as="sourcePoint" />
            <mxPoint x="775.75" y="212" as="targetPoint" />
          </mxGeometry>
        </mxCell>
        <mxCell id="y7BpoCNVdQsxZ7AoowJW-64" value="" style="ellipse;whiteSpace=wrap;html=1;fillColor=#e51400;strokeColor=#000000;fontColor=#000000;direction=south;" parent="1" vertex="1">
          <mxGeometry x="559" y="80" width="17.5" height="20" as="geometry" />
        </mxCell>
        <mxCell id="y7BpoCNVdQsxZ7AoowJW-65" value="&lt;font size=&quot;1&quot;&gt;&lt;b style=&quot;font-size: 15px&quot;&gt;Supervision&lt;/b&gt;&lt;/font&gt;" style="text;html=1;strokeColor=none;fillColor=none;align=center;verticalAlign=middle;whiteSpace=wrap;rounded=0;fontColor=#000000;" parent="1" vertex="1">
          <mxGeometry x="576.5" y="177.5" width="136" height="20" as="geometry" />
        </mxCell>
        <mxCell id="y7BpoCNVdQsxZ7AoowJW-66" value="" style="endArrow=classic;html=1;entryX=1;entryY=0;entryDx=0;entryDy=0;strokeWidth=2;dashed=1;dashPattern=1 1;exitX=0.25;exitY=0;exitDx=0;exitDy=0;strokeColor=#000000;fontColor=#000000;" parent="1" source="y7BpoCNVdQsxZ7AoowJW-65" target="y7BpoCNVdQsxZ7AoowJW-64" edge="1">
          <mxGeometry width="50" height="50" relative="1" as="geometry">
            <mxPoint x="621" y="225.5" as="sourcePoint" />
            <mxPoint x="564.5" y="225.5" as="targetPoint" />
          </mxGeometry>
        </mxCell>
        <mxCell id="y7BpoCNVdQsxZ7AoowJW-67" value="" style="group;strokeColor=#000000;fontColor=#000000;" parent="1" vertex="1" connectable="0">
          <mxGeometry x="320" y="340" width="65" height="44" as="geometry" />
        </mxCell>
        <mxCell id="y7BpoCNVdQsxZ7AoowJW-68" value="" style="rounded=0;whiteSpace=wrap;html=1;fillColor=#ffcccc;strokeColor=#000000;fontColor=#000000;" parent="y7BpoCNVdQsxZ7AoowJW-67" vertex="1">
          <mxGeometry width="50" height="30" as="geometry" />
        </mxCell>
        <mxCell id="y7BpoCNVdQsxZ7AoowJW-69" value="" style="rounded=0;whiteSpace=wrap;html=1;fillColor=#ffcccc;strokeColor=#000000;fontColor=#000000;" parent="y7BpoCNVdQsxZ7AoowJW-67" vertex="1">
          <mxGeometry x="5" y="5" width="50" height="30" as="geometry" />
        </mxCell>
        <mxCell id="y7BpoCNVdQsxZ7AoowJW-70" value="" style="rounded=0;whiteSpace=wrap;html=1;fillColor=#ffcccc;strokeColor=#000000;fontColor=#000000;" parent="y7BpoCNVdQsxZ7AoowJW-67" vertex="1">
          <mxGeometry x="10" y="9" width="50" height="30" as="geometry" />
        </mxCell>
        <mxCell id="y7BpoCNVdQsxZ7AoowJW-71" value="AC&lt;br&gt;Element" style="rounded=0;whiteSpace=wrap;html=1;fillColor=#ffcccc;strokeColor=#000000;fontColor=#000000;" parent="y7BpoCNVdQsxZ7AoowJW-67" vertex="1">
          <mxGeometry x="15" y="14" width="50" height="30" as="geometry" />
        </mxCell>
        <mxCell id="y7BpoCNVdQsxZ7AoowJW-72" value="" style="group;strokeColor=#000000;fontColor=#000000;" parent="1" vertex="1" connectable="0">
          <mxGeometry x="405" y="340" width="65" height="44" as="geometry" />
        </mxCell>
        <mxCell id="y7BpoCNVdQsxZ7AoowJW-73" value="" style="rounded=0;whiteSpace=wrap;html=1;fillColor=#ffcccc;strokeColor=#000000;fontColor=#000000;" parent="y7BpoCNVdQsxZ7AoowJW-72" vertex="1">
          <mxGeometry width="50" height="30" as="geometry" />
        </mxCell>
        <mxCell id="y7BpoCNVdQsxZ7AoowJW-74" value="" style="rounded=0;whiteSpace=wrap;html=1;fillColor=#ffcccc;strokeColor=#000000;fontColor=#000000;" parent="y7BpoCNVdQsxZ7AoowJW-72" vertex="1">
          <mxGeometry x="5" y="5" width="50" height="30" as="geometry" />
        </mxCell>
        <mxCell id="y7BpoCNVdQsxZ7AoowJW-75" value="" style="rounded=0;whiteSpace=wrap;html=1;fillColor=#ffcccc;strokeColor=#000000;fontColor=#000000;" parent="y7BpoCNVdQsxZ7AoowJW-72" vertex="1">
          <mxGeometry x="10" y="9" width="50" height="30" as="geometry" />
        </mxCell>
        <mxCell id="y7BpoCNVdQsxZ7AoowJW-76" value="AC&lt;br&gt;Element" style="rounded=0;whiteSpace=wrap;html=1;fillColor=#ffcccc;strokeColor=#000000;fontColor=#000000;" parent="y7BpoCNVdQsxZ7AoowJW-72" vertex="1">
          <mxGeometry x="15" y="14" width="50" height="30" as="geometry" />
        </mxCell>
        <mxCell id="y7BpoCNVdQsxZ7AoowJW-77" value="" style="group;strokeColor=#000000;fontColor=#000000;" parent="1" vertex="1" connectable="0">
          <mxGeometry x="493" y="342" width="65" height="44" as="geometry" />
        </mxCell>
        <mxCell id="y7BpoCNVdQsxZ7AoowJW-78" value="" style="rounded=0;whiteSpace=wrap;html=1;fillColor=#ffcccc;strokeColor=#000000;fontColor=#000000;" parent="y7BpoCNVdQsxZ7AoowJW-77" vertex="1">
          <mxGeometry width="50" height="30" as="geometry" />
        </mxCell>
        <mxCell id="y7BpoCNVdQsxZ7AoowJW-79" value="" style="rounded=0;whiteSpace=wrap;html=1;fillColor=#ffcccc;strokeColor=#000000;fontColor=#000000;" parent="y7BpoCNVdQsxZ7AoowJW-77" vertex="1">
          <mxGeometry x="5" y="5" width="50" height="30" as="geometry" />
        </mxCell>
        <mxCell id="y7BpoCNVdQsxZ7AoowJW-80" value="" style="rounded=0;whiteSpace=wrap;html=1;fillColor=#ffcccc;strokeColor=#000000;fontColor=#000000;" parent="y7BpoCNVdQsxZ7AoowJW-77" vertex="1">
          <mxGeometry x="10" y="9" width="50" height="30" as="geometry" />
        </mxCell>
        <mxCell id="y7BpoCNVdQsxZ7AoowJW-81" value="AC&lt;br&gt;Element" style="rounded=0;whiteSpace=wrap;html=1;fillColor=#ffcccc;strokeColor=#000000;fontColor=#000000;" parent="y7BpoCNVdQsxZ7AoowJW-77" vertex="1">
          <mxGeometry x="15" y="14" width="50" height="30" as="geometry" />
        </mxCell>
        <mxCell id="y7BpoCNVdQsxZ7AoowJW-82" value="" style="group;strokeColor=#000000;fontColor=#000000;" parent="1" vertex="1" connectable="0">
          <mxGeometry x="578" y="341" width="65" height="44" as="geometry" />
        </mxCell>
        <mxCell id="y7BpoCNVdQsxZ7AoowJW-83" value="" style="rounded=0;whiteSpace=wrap;html=1;fillColor=#ffcccc;strokeColor=#000000;fontColor=#000000;" parent="y7BpoCNVdQsxZ7AoowJW-82" vertex="1">
          <mxGeometry width="50" height="30" as="geometry" />
        </mxCell>
        <mxCell id="y7BpoCNVdQsxZ7AoowJW-84" value="" style="rounded=0;whiteSpace=wrap;html=1;fillColor=#ffcccc;strokeColor=#000000;fontColor=#000000;" parent="y7BpoCNVdQsxZ7AoowJW-82" vertex="1">
          <mxGeometry x="5" y="5" width="50" height="30" as="geometry" />
        </mxCell>
        <mxCell id="y7BpoCNVdQsxZ7AoowJW-85" value="" style="rounded=0;whiteSpace=wrap;html=1;fillColor=#ffcccc;strokeColor=#000000;fontColor=#000000;" parent="y7BpoCNVdQsxZ7AoowJW-82" vertex="1">
          <mxGeometry x="10" y="9" width="50" height="30" as="geometry" />
        </mxCell>
        <mxCell id="y7BpoCNVdQsxZ7AoowJW-86" value="AC&lt;br&gt;Element" style="rounded=0;whiteSpace=wrap;html=1;fillColor=#ffcccc;strokeColor=#000000;fontColor=#000000;" parent="y7BpoCNVdQsxZ7AoowJW-82" vertex="1">
          <mxGeometry x="15" y="14" width="50" height="30" as="geometry" />
        </mxCell>
        <mxCell id="y7BpoCNVdQsxZ7AoowJW-87" value="" style="group;strokeColor=#000000;fontColor=#000000;" parent="1" vertex="1" connectable="0">
          <mxGeometry x="665" y="341" width="65" height="44" as="geometry" />
        </mxCell>
        <mxCell id="y7BpoCNVdQsxZ7AoowJW-88" value="" style="rounded=0;whiteSpace=wrap;html=1;fillColor=#ffcccc;strokeColor=#000000;fontColor=#000000;" parent="y7BpoCNVdQsxZ7AoowJW-87" vertex="1">
          <mxGeometry width="50" height="30" as="geometry" />
        </mxCell>
        <mxCell id="y7BpoCNVdQsxZ7AoowJW-89" value="" style="rounded=0;whiteSpace=wrap;html=1;fillColor=#ffcccc;strokeColor=#000000;fontColor=#000000;" parent="y7BpoCNVdQsxZ7AoowJW-87" vertex="1">
          <mxGeometry x="5" y="5" width="50" height="30" as="geometry" />
        </mxCell>
        <mxCell id="y7BpoCNVdQsxZ7AoowJW-90" value="" style="rounded=0;whiteSpace=wrap;html=1;fillColor=#ffcccc;strokeColor=#000000;fontColor=#000000;" parent="y7BpoCNVdQsxZ7AoowJW-87" vertex="1">
          <mxGeometry x="10" y="9" width="50" height="30" as="geometry" />
        </mxCell>
        <mxCell id="y7BpoCNVdQsxZ7AoowJW-91" value="AC&lt;br&gt;Element" style="rounded=0;whiteSpace=wrap;html=1;fillColor=#ffcccc;strokeColor=#000000;fontColor=#000000;" parent="y7BpoCNVdQsxZ7AoowJW-87" vertex="1">
          <mxGeometry x="15" y="14" width="50" height="30" as="geometry" />
        </mxCell>
        <mxCell id="y7BpoCNVdQsxZ7AoowJW-92" value="" style="group;strokeColor=#000000;fontColor=#000000;" parent="1" vertex="1" connectable="0">
          <mxGeometry x="750" y="340" width="65" height="44" as="geometry" />
        </mxCell>
        <mxCell id="y7BpoCNVdQsxZ7AoowJW-93" value="" style="rounded=0;whiteSpace=wrap;html=1;fillColor=#ffcccc;strokeColor=#000000;fontColor=#000000;" parent="y7BpoCNVdQsxZ7AoowJW-92" vertex="1">
          <mxGeometry width="50" height="30" as="geometry" />
        </mxCell>
        <mxCell id="y7BpoCNVdQsxZ7AoowJW-94" value="" style="rounded=0;whiteSpace=wrap;html=1;fillColor=#ffcccc;strokeColor=#000000;fontColor=#000000;" parent="y7BpoCNVdQsxZ7AoowJW-92" vertex="1">
          <mxGeometry x="5" y="5" width="50" height="30" as="geometry" />
        </mxCell>
        <mxCell id="y7BpoCNVdQsxZ7AoowJW-95" value="" style="rounded=0;whiteSpace=wrap;html=1;fillColor=#ffcccc;strokeColor=#000000;fontColor=#000000;" parent="y7BpoCNVdQsxZ7AoowJW-92" vertex="1">
          <mxGeometry x="10" y="9" width="50" height="30" as="geometry" />
        </mxCell>
        <mxCell id="y7BpoCNVdQsxZ7AoowJW-96" value="AC&lt;br&gt;Element" style="rounded=0;whiteSpace=wrap;html=1;fillColor=#ffcccc;strokeColor=#000000;fontColor=#000000;" parent="y7BpoCNVdQsxZ7AoowJW-92" vertex="1">
          <mxGeometry x="15" y="14" width="50" height="30" as="geometry" />
        </mxCell>
        <mxCell id="y7BpoCNVdQsxZ7AoowJW-97" value="ACM Client (ACM-C)" style="rounded=0;whiteSpace=wrap;html=1;fillColor=#dae8fc;strokeColor=#000000;verticalAlign=top;fontColor=#000000;" parent="1" vertex="1">
          <mxGeometry x="597" y="-47" width="130" height="30" as="geometry" />
        </mxCell>
        <mxCell id="y7BpoCNVdQsxZ7AoowJW-98" value="" style="endArrow=none;html=1;rounded=0;entryX=0.5;entryY=1;entryDx=0;entryDy=0;exitX=0.5;exitY=0;exitDx=0;exitDy=0;strokeColor=#000000;fontColor=#000000;" parent="1" source="y7BpoCNVdQsxZ7AoowJW-6" target="y7BpoCNVdQsxZ7AoowJW-97" edge="1">
          <mxGeometry width="50" height="50" relative="1" as="geometry">
            <mxPoint x="327" y="320" as="sourcePoint" />
            <mxPoint x="377" y="270" as="targetPoint" />
          </mxGeometry>
        </mxCell>
        <mxCell id="5zvoJqUGBDOMEw7KMt0H-1" value="&lt;div&gt;Automation Composition&lt;/div&gt;&lt;div&gt;Element Metadata Design&lt;br&gt;&lt;/div&gt;" style="rounded=0;whiteSpace=wrap;html=1;fillColor=#fff2cc;strokeColor=#000000;fontColor=#000000;" vertex="1" parent="1">
          <mxGeometry x="50" y="27" width="80" height="85" as="geometry" />
        </mxCell>
        <mxCell id="5zvoJqUGBDOMEw7KMt0H-2" value="" style="endArrow=classic;startArrow=classic;html=1;entryX=0;entryY=0.5;entryDx=0;entryDy=0;exitX=1;exitY=0.5;exitDx=0;exitDy=0;strokeColor=#000000;fontColor=#000000;" edge="1" parent="1" source="5zvoJqUGBDOMEw7KMt0H-1" target="y7BpoCNVdQsxZ7AoowJW-5">
          <mxGeometry width="50" height="50" relative="1" as="geometry">
            <mxPoint x="134" y="100" as="sourcePoint" />
            <mxPoint x="164" y="75" as="targetPoint" />
          </mxGeometry>
        </mxCell>
      </root>
    </mxGraphModel>
  </diagram>
</mxfile>
